<?xml version="1.0" standalone="no"?><!DOCTYPE svg PUBLIC "-//W3C//DTD SVG 1.1//EN" "http://www.w3.org/Graphics/SVG/1.1/DTD/svg11.dtd"><svg class="icon" width="200px" height="124.88px" viewBox="0 0 1640 1024" version="1.1" xmlns="http://www.w3.org/2000/svg"><path d="M322.384 0.09h409.178a79.205 79.205 0 0 1 78.328 103.755l-190.852 816.31a137.66 137.66 0 0 1-127.43 103.756H82.431A79.497 79.497 0 0 1 3.81 920.155l190.852-816.31A139.12 139.12 0 0 1 322.384 0.09z" fill="#E03333" /><path d="M696.782 0.09h469.385c56.408 0 31.273 46.47 18.12 103.755l-189.682 816.31c-13.153 58.454-9.06 103.756-66.346 103.756H457.997a78.62 78.62 0 0 1-77.159-103.756l189.39-816.31A136.782 136.782 0 0 1 696.783 0.09z" fill="#004889" /><path d="M1148.339 0.09h409.177a78.913 78.913 0 0 1 78.62 103.755l-191.728 816.31A138.536 138.536 0 0 1 1316.1 1023.91H906.924a78.913 78.913 0 0 1-78.62-103.756l192.313-816.31A138.536 138.536 0 0 1 1148.339 0.09z" fill="#008089" /><path d="M1079.655 740.993h38.287l11.399-36.826h-38.287z m31.858-102.879l-13.153 43.256s14.906-7.306 22.213-9.937l20.166-3.215 9.06-29.227z m18.705-63.422l-12.86 41.794a114.277 114.277 0 0 1 21.92-8.183 77.16 77.16 0 0 1 19.582-2.63l9.06-29.228z m85.05 0l-49.686 165.132h12.86l-10.521 33.611h-13.153l-3.215 10.522h-47.347l3.215-10.522h-95.572l9.644-31.273h9.938l50.855-167.47 9.937-33.611h48.516l-4.968 17.244a97.618 97.618 0 0 1 25.427-12.276c12.276-3.215 81.836-4.091 81.836-4.091l-10.814 33.61z" fill="#FFFFFF" /><path d="M1236.604 541.373h50.27v18.998c0 3.215 2.63 4.676 8.184 4.676h10.522l-9.645 32.15h-29.227c-23.674 1.461-33.611-9.06-32.734-20.46z m6.43 150.227h-48.81l8.184-29.227h55.24l8.183-25.428H1210.3l9.645-31.857h154.61l-9.937 31.857h-51.147l-8.184 25.428h51.44l-8.184 29.227h-55.53l-9.646 11.398h22.797l5.553 35.365a54.07 54.07 0 0 0 1.754 7.307c0 1.461 8.183 1.461 12.275 1.461h6.43l-10.522 36.242h-17.243a77.16 77.16 0 0 1-12.276 0 46.763 46.763 0 0 1-12.275-4.97 16.367 16.367 0 0 1-8.768-12.274l-5.846-35.073-25.427 35.073a44.425 44.425 0 0 1-37.41 19.582h-36.242l9.06-30.98h14.03a18.12 18.12 0 0 0 9.936-4.677 14.321 14.321 0 0 0 7.6-6.722z m-538.946-76.575h130.937l-9.645 30.98H773.65l-8.184 26.305h53.778l-9.645 31.857H755.82l-13.152 42.672c-1.754 4.676 12.275 5.553 18.12 5.553l26.013-3.215-10.522 35.072h-58.454a81.543 81.543 0 0 1-13.737-1.461 16.075 16.075 0 0 1-9.937-7.307 13.444 13.444 0 0 1-3.215-14.029l17.244-58.454h-29.227l9.937-32.734h29.227l8.184-26.012h-29.227z m87.681-55.531h53.193l-9.937 32.734h-71.898l-8.184 6.43c-3.215 3.215-4.968 1.754-9.06 4.092a46.763 46.763 0 0 1-23.674 6.722h-22.797l9.645-31.273h7.307a49.101 49.101 0 0 0 12.275-1.461 33.903 33.903 0 0 0 8.184-9.937l13.152-24.551h53.193z m102.003 53.193a85.343 85.343 0 0 1 39.456-17.244h40.918l5.553-17.828h-72.775z m71.313 13.737h-73.652l-4.968 14.905h64.884a26.889 26.889 0 0 1 9.645 0z m-97.326-85.05h45.01l-6.722 23.088a155.195 155.195 0 0 1 24.55-15.49 204.589 204.589 0 0 1 34.78-7.599h73.653l-24.551 83.59a94.695 94.695 0 0 1-12.275 29.226 26.012 26.012 0 0 1-12.276 11.399 54.654 54.654 0 0 1-17.244 5.845h-94.987l-19.582 65.469c-1.754 6.722-2.63 9.937-1.754 11.398a7.014 7.014 0 0 0 6.43 3.507l31.273-3.507-10.814 36.242h-34.78a182.084 182.084 0 0 1-24.551 0 21.92 21.92 0 0 1-14.613-3.215c-3.508-3.508-8.184-6.723-8.184-10.814a73.36 73.36 0 0 1 4.092-17.829z" fill="#FFFFFF" /><path d="M1001.035 676.402l-4.092 19.582a23.09 23.09 0 0 1-8.184 14.906 32.734 32.734 0 0 1-23.381 9.937h-25.136v22.797c0 6.722 0 5.845 2.339 6.722a5.26 5.26 0 0 0 3.215 1.461h8.183l23.674-1.461-9.645 32.734h-28.935a83.297 83.297 0 0 1-38.58-3.8c-4.968-3.214-4.968-6.721-4.968-13.151l1.754-87.681h44.132v17.828h10.814a10.814 10.814 0 0 0 7.307-1.461 9.353 9.353 0 0 0 3.215-4.969l4.092-14.029z m-629.55-415.316c-1.753 7.307-29.227 137.952-29.227 137.952a93.526 93.526 0 0 1-25.427 58.454 42.964 42.964 0 0 1-29.227 10.814 27.473 27.473 0 0 1-30.98-27.181v-6.723l3.507-35.072s29.227-119.246 35.072-134.736v-1.754a389.596 389.596 0 0 1-68.683 0v8.184l-31.273 135.028-2.338 11.399-4.97 36.826a58.454 58.454 0 0 0 6.43 27.765c14.03 24.551 53.194 29.227 75.406 29.227a152.273 152.273 0 0 0 73.068-19.582 109.893 109.893 0 0 0 47.348-73.652l3.215-13.152s29.227-124.215 35.949-139.705v-1.753c-43.256 0-55.531-1.754-58.454-2.339m169.224 246.092h-51.44v-1.754c2.339-9.06 4.092-18.12 6.43-26.889l2.63-11.398a445.711 445.711 0 0 0 9.061-49.102c0-4.092 1.754-14.906-9.645-14.906a46.47 46.47 0 0 0-15.782 4.97c-3.215 10.813-8.768 39.456-11.399 52.315-5.553 27.766-6.43 31.273-9.06 45.01v1.754h-52.316v-1.754c4.091-16.367 8.183-32.734 12.275-49.978 9.937-45.01 12.275-61.961 15.49-85.05h1.754c23.674-3.216 29.227-4.092 54.654-9.061l2.63 2.338-4.091 14.029c4.092-2.338 8.184-4.969 12.86-7.307a80.374 80.374 0 0 1 32.734-7.306 27.473 27.473 0 0 1 29.227 16.367c4.969 11.398 1.754 26.012-4.969 53.777l-4.968 13.445c-6.43 30.98-7.307 36.826-11.399 58.454z m83.297-29.227h-56.116l-1.753-1.754a161.917 161.917 0 0 1 6.722-20.459 106.094 106.094 0 0 0 5.553-20.459c3.215-15.49 5.845-26.012 7.307-35.949s2.63-17.244 4.091-26.012l1.754-1.754 29.227-4.091a270.642 270.642 0 0 0 29.227-4.969l-7.307 29.227c-2.63 9.937-4.968 19.874-6.722 29.227-4.969 20.459-6.43 29.227-7.307 33.611s-1.753 8.184-3.215 18.705z m130.937-71.899a104.633 104.633 0 0 1-12.276 33.319 20.751 20.751 0 0 1-15.49 9.937c-1.753 0-11.398 0-12.275-14.613a109.601 109.601 0 0 1 3.215-23.09c5.845-23.674 11.398-44.132 29.227-44.132s14.906 14.029 9.06 38.58m53.193 1.46c7.307-31.857 1.462-45.594-5.845-54.654a58.454 58.454 0 0 0-49.101-18.12 87.68 87.68 0 0 0-61.085 21.335 98.203 98.203 0 0 0-27.18 53.193c-4.093 18.705-9.646 54.07 22.212 66.93a95.28 95.28 0 0 0 33.318 5.845 87.68 87.68 0 0 0 64.592-24.258 112.524 112.524 0 0 0 22.212-49.101m534.854-71.899c-25.427 4.969-32.734 5.846-58.454 9.06h-1.753v5.846a33.026 33.026 0 0 0-18.121-14.613 70.73 70.73 0 0 0-58.454 21.043 100.249 100.249 0 0 0-27.181 53.193c-4.092 18.998-9.645 54.07 22.212 66.345a63.13 63.13 0 0 0 29.227 4.969 52.609 52.609 0 0 0 26.89-12.275 66.93 66.93 0 0 0-2.339 8.183h58.746c3.215-21.336 7.307-41.794 16.367-82.712 4.092-19.582 9.06-38.288 14.03-58.454z m-81.835 106.386a29.227 29.227 0 0 1-19.582 9.645c-1.754 0-11.399 0-12.276-14.613a109.601 109.601 0 0 1 3.215-22.797c5.846-23.09 11.399-43.548 27.766-43.548 10.814 0 15.49 9.937 14.906 26.304a99.08 99.08 0 0 1-3.508 13.152c-1.461 7.307-3.215 13.737-4.676 21.043a77.16 77.16 0 0 1-5.845 10.814m-312.437 64.008h-51.44v-1.754c1.754-9.06 4.093-18.12 6.43-26.889l2.631-12.275a445.711 445.711 0 0 0 9.06-49.102c0-4.091 0-14.905-9.937-14.905a43.256 43.256 0 0 0-15.49 4.968c-3.215 10.814-9.06 39.457-11.399 52.317-5.845 27.765-6.722 31.272-9.06 45.01l-1.754 1.753h-52.316v-1.754c4.092-16.367 8.184-32.734 12.276-49.978 9.937-45.01 12.275-61.961 15.782-85.05h1.461c23.674-3.215 29.227-4.092 54.947-9.06l1.462 2.337-4.092 14.03c4.092-2.339 8.183-4.97 13.152-7.308a80.374 80.374 0 0 1 32.734-7.306 27.473 27.473 0 0 1 29.227 16.367c4.969 11.398 1.461 26.012-4.969 53.777l-3.214 14.03c-6.43 30.98-7.307 36.825-11.399 58.453-0.877-0.292-4.092 2.339-4.092 2.339z" fill="#FFFFFF" /><path d="M1127.003 261.086h-86.512c0 3.215-1.754 9.06-1.754 9.06l-14.905 72.484-40.041 164.548a601.199 601.199 0 0 1 61.084 0c1.754-7.307 10.814-50.855 10.814-50.855s7.307-31.858 8.184-33.32a18.12 18.12 0 0 1 4.968-4.968h3.215a164.548 164.548 0 0 0 101.418-22.212 110.186 110.186 0 0 0 39.456-63.715 105.802 105.802 0 0 0 2.338-22.213 44.717 44.717 0 0 0-8.183-27.473c-15.49-20.459-45.01-21.043-80.082-21.043m22.212 75.99a53.193 53.193 0 0 1-27.765 36.826 91.773 91.773 0 0 1-39.457 5.553h-9.06v-4.092s17.244-73.652 17.244-72.775v-7.6h6.43l35.949 3.216a29.227 29.227 0 0 1 15.783 37.703m-502.12 45.01c13.737-9.938 15.49-22.213 4.092-29.228a45.302 45.302 0 0 0-45.01 4.969c-14.029 9.06-15.49 22.212-4.092 29.227a46.179 46.179 0 0 0 45.01-4.969m867.749-45.886l-1.754-2.338c-25.427 4.968-29.227 5.553-53.193 9.06v1.461c-17.244 40.041-16.367 30.981-31.273 62.838v-4.091l-3.215-67.807-2.338-2.338c-26.304 4.969-27.18 5.553-51.731 9.06l-1.462 1.462v2.63a331.434 331.434 0 0 1 5.553 37.703c1.754 11.983 3.508 24.258 4.969 35.95 2.63 19.581 4.092 29.226 6.43 60.499-16.075 26.889-20.167 37.41-35.95 61.377l-11.398 17.828c0 1.754-2.338 3.215-4.092 3.215a16.367 16.367 0 0 1-7.306 0h-6.43l-9.06 30.98h31.857a39.749 39.749 0 0 0 36.826-20.458l19.582-34.196 2.338-2.63c9.353-24.259 111.647-200.205 111.647-200.205z" fill="#FFFFFF" /></svg>