<?xml version="1.0" standalone="no"?><!DOCTYPE svg PUBLIC "-//W3C//DTD SVG 1.1//EN" "http://www.w3.org/Graphics/SVG/1.1/DTD/svg11.dtd"><svg class="icon" width="200px" height="200.00px" viewBox="0 0 1024 1024" version="1.1" xmlns="http://www.w3.org/2000/svg"><path d="M1024 196.928A196.928 196.928 0 0 0 827.072 0H196.928A196.928 196.928 0 0 0 0 196.928v630.144A196.928 196.928 0 0 0 196.928 1024h630.144a196.992 196.992 0 0 0 193.92-162.24c-52.224-22.4-278.592-120.192-396.48-176.576-89.728 108.672-183.68 173.888-325.312 173.888s-236.16-87.104-224.768-193.92c7.488-70.144 55.552-184.64 264.32-164.992 109.952 10.432 160.384 30.912 250.176 60.48 23.04-42.496 42.432-89.344 56.96-139.2H248.128v-39.424h196.8V311.168H204.8v-43.328h240V165.696s2.304-16 19.84-16H563.2v118.144h256v43.328h-256v70.848h208.768a803.84 803.84 0 0 1-84.736 212.736c60.736 21.888 336.768 106.24 336.768 106.24V196.992zM283.52 791.616c-149.632 0-173.248-94.528-165.376-133.888 7.872-39.36 51.2-90.624 134.4-90.624 95.68 0 181.248 24.448 284.032 74.496-72.128 94.016-160.896 150.016-252.992 150.016z" fill="#00A4EC" /></svg>